<svg xmlns="http://www.w3.org/2000/svg" viewBox="0 0 1200 500" role="img" aria-labelledby="t d" xmlns:c2pa="http://c2pa.org/manifest"><metadata><c2pa:manifest>AAAWgmp1bWIAAAAeanVtZGMycGEAEQAQgAAAqgA4m3EDYzJwYQAAABZcanVtYgAAAEdqdW1kYzJtYQARABCAAACqADibcQN1cm46YzJwYTpiMWIwYTNhYS0wYjg4LTQ4ZGYtOWNlNC1lYzUzODRiNWVlNjkAAAADl2p1bWIAAAApanVtZGMyYXMAEQAQgAAAqgA4m3EDYzJwYS5hc3NlcnRpb25zAAAAALxqdW1iAAAARGp1bWRjYm9yABEAEIAAAKoAOJtxE2MycGEuaW5ncmVkaWVudC52MwAAAAAYYzJzaB9vb9LgiKthymtbpG6oyfQAAABwY2JvcqNpZGM6Zm9ybWF0bWltYWdlL3N2Zyt4bWxqaW5zdGFuY2VJRHgseG1wOmlpZDpjMzAxN2QyMC01YzUxLTRmOGEtOWMyYy1hOWIxYTYyZTQ0ZmRscmVsYXRpb25zaGlwaHBhcmVudE9mAAAB4mp1bWIAAABBanVtZGNib3IAEQAQgAAAqgA4m3ETYzJwYS5hY3Rpb25zLnYyAAAAABhjMnNoenH6eyNp+f8FN7wB8iBftgAAAZljYm9yomdhY3Rpb25zgqJmYWN0aW9ua2MycGEub3BlbmVkanBhcmFtZXRlcnOha2luZ3JlZGllbnRzgaJjdXJseC1zZWxmI2p1bWJmPWMycGEuYXNzZXJ0aW9ucy9jMnBhLmluZ3JlZGllbnQudjNkaGFzaFggMEDDmj9WXj0w47r7KnfyszLEdMoJAAKs4dSa9mpa9FukZmFjdGlvbngdY29tLmFudGhyb3BpYy5jbGF1ZGUucHJvdmlkZWRqcGFyYW1ldGVyc6F4H2NvbS5hbnRocm9waWMub3JpZ2luLWNvbmZpZGVuY2VndW5rbm93bmtkZXNjcmlwdGlvbnhmQ2xhdWRlIHByb3ZpZGVkIHRoaXMgZmlsZSBhdCB0aGUgcmVxdWVzdCBvZiBhIHVzZXIgYW5kIG1heSBoYXZlIGNyZWF0ZWQgb3IgbW9kaWZpZWQgdGhlIGZpbGUgY29udGVudHMubXNvZnR3YXJlQWdlbnShZG5hbWVmQ2xhdWRlcmFsbEFjdGlvbnNJbmNsdWRlZPUAAADIanVtYgAAAEBqdW1kY2JvcgARABCAAACqADibcRNjMnBhLmhhc2guZGF0YQAAAAAYYzJzaCYsOoOzY5xAgKnZog7LKHgAAACAY2JvcqVjYWxnZnNoYTI1NmNwYWRNAAAAAAAAAAAAAAAAAGRoYXNoWCDE3KpWGCNGo4TBtRHxosUUpsvQzfTZ351Z/s6sMSoNNmRuYW1lbmp1bWJmIG1hbmlmZXN0amV4Y2x1c2lvbnOBomVzdGFydBifZmxlbmd0aBkeBAAAAj5qdW1iAAAAJ2p1bWRjMmNsABEAEIAAAKoAOJtxA2MycGEuY2xhaW0udjIAAAACD2Nib3KlY2FsZ2ZzaGEyNTZpc2lnbmF0dXJleE1zZWxmI2p1bWJmPS9jMnBhL3VybjpjMnBhOmIxYjBhM2FhLTBiODgtNDhkZi05Y2U0LWVjNTM4NGI1ZWU2OS9jMnBhLnNpZ25hdHVyZWppbnN0YW5jZUlEeCx4bXA6aWlkOjkxMjdlNGE0LTlmMmMtNDY3Ny1hN2Y4LTI3YmI2YzIyNWNmOXJjcmVhdGVkX2Fzc2VydGlvbnODomN1cmx4LXNlbGYjanVtYmY9YzJwYS5hc3NlcnRpb25zL2MycGEuaW5ncmVkaWVudC52M2RoYXNoWCAwQMOaP1ZePTDjuvsqd/KzMsR0ygkAAqzh1Jr2alr0W6JjdXJseCpzZWxmI2p1bWJmPWMycGEuYXNzZXJ0aW9ucy9jMnBhLmFjdGlvbnMudjJkaGFzaFggI+Vu67QCyBRa1VrJaGEVq1bd9tL3h6x0ovEynqkxweiiY3VybHgpc2VsZiNqdW1iZj1jMnBhLmFzc2VydGlvbnMvYzJwYS5oYXNoLmRhdGFkaGFzaFggT5wKtRN+Pjzqua1haP5zGfIcrrsupd5UmWNrgl+IZhN0Y2xhaW1fZ2VuZXJhdG9yX2luZm+jZG5hbWVvQW50aHJvcGljIEZpbGVzZ3ZlcnNpb25lMS4wLjBrc3BlY1ZlcnNpb25lMi40LjAAABA4anVtYgAAAChqdW1kYzJjcwARABCAAACqADibcQNjMnBhLnNpZ25hdHVyZQAAABAIY2JvctKEWQISogEmGCFZAgowggIGMIIBjaADAgECAhRA5aAK7sI50L64g/oGQgU9Z1UTADAKBggqhkjOPQQDAzBJMRcwFQYDVQQKEw5BbnRocm9waWMsIFBCQzEuMCwGA1UEAxMlQW50aHJvcGljIENvbnRlbnQgQ3JlZGVudGlhbHMgUm9vdCBDQTAeFw0yNjA4MDcxODQzNTZaFw0yODA4MDYxOTQzNTZaMEQxFzAVBgNVBAoTDkFudGhyb3BpYywgUEJDMSkwJwYDVQQDEyBBbnRocm9waWMgQ2xhdWRlIENvbnRlbnQgU2lnbmluZzBZMBMGByqGSM49AgEGCCqGSM49AwEHA0IABJh6CmvLUBgFFNU0vUKlOVtE6djd17L5SuwX0LemFisBM3dkd/3cyjxFA3Qo5S46fX0/ihY0VZ7mfb9KF703t5OjWDBWMA4GA1UdDwEB/wQEAwIHgDAVBgNVHSUEDjAMBgorBgEEAYPoXgIBMAwGA1UdEwEB/wQCMAAwHwYDVR0jBBgwFoAUzlHiBIFOZFsj+OPEz5o+nMHXXMIwCgYIKoZIzj0EAwMDZwAwZAIwMXMdFJ4BetLLVY7ORuE9noqbbAZOZn/aArXyTwFAZfKrPzxF2vPoJNf1+UCdg1XGAjBwX1zd9WGqYkqmL5SFqw1QySjr1zJfpJM9+1rdDwSPLMOPOjKuiXjoU/pUUeG9RwmhY3BhZFkNngAAAAAAAAAAAAAAAAAAAAAAAAAAAAAAAAAAAAAAAAAAAAAAAAAAAAAAAAAAAAAAAAAAAAAAAAAAAAAAAAAAAAAAAAAAAAAAAAAAAAAAAAAAAAAAAAAAAAAAAAAAAAAAAAAAAAAAAAAAAAAAAAAAAAAAAAAAAAAAAAAAAAAAAAAAAAAAAAAAAAAAAAAAAAAAAAAAAAAAAAAAAAAAAAAAAAAAAAAAAAAAAAAAAAAAAAAAAAAAAAAAAAAAAAAAAAAAAAAAAAAAAAAAAAAAAAAAAAAAAAAAAAAAAAAAAAAAAAAAAAAAAAAAAAAAAAAAAAAAAAAAAAAAAAAAAAAAAAAAAAAAAAAAAAAAAAAAAAAAAAAAAAAAAAAAAAAAAAAAAAAAAAAAAAAAAAAAAAAAAAAAAAAAAAAAAAAAAAAAAAAAAAAAAAAAAAAAAAAAAAAAAAAAAAAAAAAAAAAAAAAAAAAAAAAAAAAAAAAAAAAAAAAAAAAAAAAAAAAAAAAAAAAAAAAAAAAAAAAAAAAAAAAAAAAAAAAAAAAAAAAAAAAAAAAAAAAAAAAAAAAAAAAAAAAAAAAAAAAAAAAAAAAAAAAAAAAAAAAAAAAAAAAAAAAAAAAAAAAAAAAAAAAAAAAAAAAAAAAAAAAAAAAAAAAAAAAAAAAAAAAAAAAAAAAAAAAAAAAAAAAAAAAAAAAAAAAAAAAAAAAAAAAAAAAAAAAAAAAAAAAAAAAAAAAAAAAAAAAAAAAAAAAAAAAAAAAAAAAAAAAAAAAAAAAAAAAAAAAAAAAAAAAAAAAAAAAAAAAAAAAAAAAAAAAAAAAAAAAAAAAAAAAAAAAAAAAAAAAAAAAAAAAAAAAAAAAAAAAAAAAAAAAAAAAAAAAAAAAAAAAAAAAAAAAAAAAAAAAAAAAAAAAAAAAAAAAAAAAAAAAAAAAAAAAAAAAAAAAAAAAAAAAAAAAAAAAAAAAAAAAAAAAAAAAAAAAAAAAAAAAAAAAAAAAAAAAAAAAAAAAAAAAAAAAAAAAAAAAAAAAAAAAAAAAAAAAAAAAAAAAAAAAAAAAAAAAAAAAAAAAAAAAAAAAAAAAAAAAAAAAAAAAAAAAAAAAAAAAAAAAAAAAAAAAAAAAAAAAAAAAAAAAAAAAAAAAAAAAAAAAAAAAAAAAAAAAAAAAAAAAAAAAAAAAAAAAAAAAAAAAAAAAAAAAAAAAAAAAAAAAAAAAAAAAAAAAAAAAAAAAAAAAAAAAAAAAAAAAAAAAAAAAAAAAAAAAAAAAAAAAAAAAAAAAAAAAAAAAAAAAAAAAAAAAAAAAAAAAAAAAAAAAAAAAAAAAAAAAAAAAAAAAAAAAAAAAAAAAAAAAAAAAAAAAAAAAAAAAAAAAAAAAAAAAAAAAAAAAAAAAAAAAAAAAAAAAAAAAAAAAAAAAAAAAAAAAAAAAAAAAAAAAAAAAAAAAAAAAAAAAAAAAAAAAAAAAAAAAAAAAAAAAAAAAAAAAAAAAAAAAAAAAAAAAAAAAAAAAAAAAAAAAAAAAAAAAAAAAAAAAAAAAAAAAAAAAAAAAAAAAAAAAAAAAAAAAAAAAAAAAAAAAAAAAAAAAAAAAAAAAAAAAAAAAAAAAAAAAAAAAAAAAAAAAAAAAAAAAAAAAAAAAAAAAAAAAAAAAAAAAAAAAAAAAAAAAAAAAAAAAAAAAAAAAAAAAAAAAAAAAAAAAAAAAAAAAAAAAAAAAAAAAAAAAAAAAAAAAAAAAAAAAAAAAAAAAAAAAAAAAAAAAAAAAAAAAAAAAAAAAAAAAAAAAAAAAAAAAAAAAAAAAAAAAAAAAAAAAAAAAAAAAAAAAAAAAAAAAAAAAAAAAAAAAAAAAAAAAAAAAAAAAAAAAAAAAAAAAAAAAAAAAAAAAAAAAAAAAAAAAAAAAAAAAAAAAAAAAAAAAAAAAAAAAAAAAAAAAAAAAAAAAAAAAAAAAAAAAAAAAAAAAAAAAAAAAAAAAAAAAAAAAAAAAAAAAAAAAAAAAAAAAAAAAAAAAAAAAAAAAAAAAAAAAAAAAAAAAAAAAAAAAAAAAAAAAAAAAAAAAAAAAAAAAAAAAAAAAAAAAAAAAAAAAAAAAAAAAAAAAAAAAAAAAAAAAAAAAAAAAAAAAAAAAAAAAAAAAAAAAAAAAAAAAAAAAAAAAAAAAAAAAAAAAAAAAAAAAAAAAAAAAAAAAAAAAAAAAAAAAAAAAAAAAAAAAAAAAAAAAAAAAAAAAAAAAAAAAAAAAAAAAAAAAAAAAAAAAAAAAAAAAAAAAAAAAAAAAAAAAAAAAAAAAAAAAAAAAAAAAAAAAAAAAAAAAAAAAAAAAAAAAAAAAAAAAAAAAAAAAAAAAAAAAAAAAAAAAAAAAAAAAAAAAAAAAAAAAAAAAAAAAAAAAAAAAAAAAAAAAAAAAAAAAAAAAAAAAAAAAAAAAAAAAAAAAAAAAAAAAAAAAAAAAAAAAAAAAAAAAAAAAAAAAAAAAAAAAAAAAAAAAAAAAAAAAAAAAAAAAAAAAAAAAAAAAAAAAAAAAAAAAAAAAAAAAAAAAAAAAAAAAAAAAAAAAAAAAAAAAAAAAAAAAAAAAAAAAAAAAAAAAAAAAAAAAAAAAAAAAAAAAAAAAAAAAAAAAAAAAAAAAAAAAAAAAAAAAAAAAAAAAAAAAAAAAAAAAAAAAAAAAAAAAAAAAAAAAAAAAAAAAAAAAAAAAAAAAAAAAAAAAAAAAAAAAAAAAAAAAAAAAAAAAAAAAAAAAAAAAAAAAAAAAAAAAAAAAAAAAAAAAAAAAAAAAAAAAAAAAAAAAAAAAAAAAAAAAAAAAAAAAAAAAAAAAAAAAAAAAAAAAAAAAAAAAAAAAAAAAAAAAAAAAAAAAAAAAAAAAAAAAAAAAAAAAAAAAAAAAAAAAAAAAAAAAAAAAAAAAAAAAAAAAAAAAAAAAAAAAAAAAAAAAAAAAAAAAAAAAAAAAAAAAAAAAAAAAAAAAAAAAAAAAAAAAAAAAAAAAAAAAAAAAAAAAAAAAAAAAAAAAAAAAAAAAAAAAAAAAAAAAAAAAAAAAAAAAAAAAAAAAAAAAAAAAAAAAAAAAAAAAAAAAAAAAAAAAAAAAAAAAAAAAAAAAAAAAAAAAAAAAAAAAAAAAAAAAAAAAAAAAAAAAAAAAAAAAAAAAAAAAAAAAAAAAAAAAAAAAAAAAAAAAAAAAAAAAAAAAAAAAAAAAAAAAAAAAAAAAAAAAAAAAAAAAAAAAAAAAAAAAAAAAAAAAAAAAAAAAAAAAAAAAAAAAAAAAAAAAAAAAAAAAAAAAAAAAAAAAAAAAAAAAAAAAAAAAAAAAAAAAAAAAAAAAAAAAAAAAAAAAAAAAAAAAAAAAAAAAAAAAAAAAAAAAAAAAAAAAAAAAAAAAAAAAAAAAAAAAAAAAAAAAAAAAAAAAAAAAAAAAAAAAAAAAAAAAAAAAAAAAAAAAAAAAAAAAAAAAAAAAAAAAAAAAAAAAAAAAAAAAAAAAAAAAAAAAAAAAAAAAAAAAAAAAAAAAAAAAAAAAAAAAAAAAAAAAAAAAAAAAAAAAAAAAAAAAAAAAAAAAAAAAAAAAAAAAAAAAAAAAAAAAAAAAAAAAAAAAAAAAAAAAAAAAAAAAAAAAAAAAAAAAAAAAAAAAAAAAAAAAAAAAAAAAAAAAAAAAAAAAAAAAAAAAAAAAAAAAAAAAAAAAAAAAAAAAAAAAAAAAAAAAAAAAAAAAAAAAAAAAAAAAAAAAAAAAAAAAAAAAAAAAAAAAAAAAAAAAAAAAAAAAAAAAAAAAAAAAAAAAAAAAAAAAAAAAAAAAAAAAAAAAAAAAAAAAAAAAAAAAAAAAAAAAAAAAAAAAAAAAAAAAAAAAAAAAAAAAAAAAAAAAAAAAAAAAAAAAAAAAAAAAAAAAAAAAAAAAAAAAAAAAAAAAAAAAAAAAAAAAAAAAAAAAAAAAAAAAAAAAAAAAAAAAAAAAAAAAAAAAAAAAAAAAAAAAAAAAAAAAAAAAAAAAAAAAAAAAAAAAAAAAAAAAAAAAAAAAAAAAAAAAAAAAAAAAAAAAAAAAAAAAAAAAAAAAAAAAAAAAAAAAAAAAAAAAAAAAAAAAAAAAAAAAAAAAAAAAAAAAAAAAAAAAAAAAAAAAAAAAAAAAAAAAAAAAAAAAAAAAAAAAAAAAAAAAAAAAAAAAAAAAAAAAAAAAAAAAAAAAAAAAAAAAAAAAAAAAAAAAAAAAAAAAAAAAAAAAAAAAAAAAAAAAAAAAAAAAAAAAAAAAAAAAAAAAAAAAAAAAAAAAAAAAAAAAAAAAAAAAAAAAAAAAAAAAAAAAAAAAAAAAAAAAAAAAAAAAAAAAAAAAAAAAAAAAAAAAAAAAAAAAAAAAAAAAAAAAAAAAAAAAAAAAAAAAAAAAAAAAAAAAAAAAAAAAAAAAAAAAAAAAAAAAAAAAAAAAAAAAAAAAAAAAAAAAAAAAAAAAAAAAAAAAAAAAAAAAAAAAAAAAAAAAAAAAAAAAAAAAAAAAAAAAAAAAAAAAAAAAAAAAAAAAAAAAAAAAAAAAAAAAAAAAAAAAAAAAAAAAAAAAAAAAAAAAAAAAAAAAAAAAAAAAAAAAAAAAAAAAAAAAAAAAAAAAAAAAAAAAAAAAAAAAAAAAAAAAAAAAAAAAAAAAAAAAAAAAAAAAAAAAAAAAAAAAAAAAAAAAAAAAAAAAAAAAAAAAAAAAAAPZYQF0LJy479wYpZeuaEB+o87GLdFB6DS+vLH/p3oAbMGpyIKJPNtY65aLxmLSde//9YlYZfY1I+41/gxo6auGGmP0=</c2pa:manifest></metadata><title id="t">Hipóteses de especificidade</title><desc id="d">Linhas partem de uma pessoa sentada em direção a sete círculos coloridos; quase todas são tracejadas e apagadas, indicando ligações específicas entre emoção e doença que não se confirmaram.</desc><defs><radialGradient id="h0"><stop offset="0" stop-color="#ffffff" stop-opacity="0.5"/><stop offset="1" stop-color="#ffffff" stop-opacity="0"/></radialGradient><radialGradient id="h1"><stop offset="0" stop-color="#a99cc0" stop-opacity="0.25"/><stop offset="1" stop-color="#a99cc0" stop-opacity="0"/></radialGradient><radialGradient id="h2"><stop offset="0" stop-color="#f3dfb4" stop-opacity="0.4"/><stop offset="1" stop-color="#f3dfb4" stop-opacity="0"/></radialGradient></defs><rect width="1200" height="500" fill="#f4f3f0"/><circle cx="600" cy="250" r="340" fill="url(#h0)"/><circle cx="1000" cy="250" r="250" fill="url(#h1)"/><circle cx="180" cy="150" r="200" fill="url(#h2)"/><path d="M500,230 C650,230 700,90 818,90" fill="none" stroke="#9e5a3a" stroke-width="2" stroke-dasharray="4 7" opacity="0.5"/><circle cx="840" cy="90" r="18" fill="#9e5a3a" opacity="0.85"/><path d="M500,230 C650,230 700,140 818,140" fill="none" stroke="#d9a08b" stroke-width="2" stroke-dasharray="4 7" opacity="0.5"/><circle cx="840" cy="140" r="18" fill="#d9a08b" opacity="0.85"/><path d="M500,230 C650,230 700,190 818,190" fill="none" stroke="#c4973a" stroke-width="2" stroke-dasharray="4 7" opacity="0.5"/><circle cx="840" cy="190" r="18" fill="#c4973a" opacity="0.85"/><path d="M500,230 C650,230 700,240 818,240" fill="none" stroke="#6b8c6e" stroke-width="2" stroke-dasharray="4 7" opacity="0.5"/><circle cx="840" cy="240" r="18" fill="#6b8c6e" opacity="0.85"/><path d="M500,230 C650,230 700,290 818,290" fill="none" stroke="#8fb3c4" stroke-width="2" stroke-dasharray="4 7" opacity="0.5"/><circle cx="840" cy="290" r="18" fill="#8fb3c4" opacity="0.85"/><path d="M500,230 C650,230 700,340 818,340" fill="none" stroke="#a99cc0" stroke-width="2" stroke-dasharray="4 7" opacity="0.5"/><circle cx="840" cy="340" r="18" fill="#a99cc0" opacity="0.85"/><path d="M500,230 C650,230 700,390 818,390" fill="none" stroke="#4a6b6f" stroke-width="2" stroke-dasharray="4 7" opacity="0.5"/><circle cx="840" cy="390" r="18" fill="#4a6b6f" opacity="0.85"/><ellipse cx="400" cy="422" rx="75" ry="4" fill="#1d3a3f" opacity="0.08"/><path d="M321.0,342.3 L321.1,359.9 L321.5,367.2 L322.2,371.4 L320.9,375.2 L320.3,378.5 L320.3,381.8 L320.9,385.1 L322.1,388.3 L323.3,390.6 L326.6,394.9 L331.9,399.2 L337.3,402.1 L341.3,403.5 L345.5,404.6 L354.1,405.5 L359.7,407.9 L370.7,411.7 L383.2,415.0 L399.6,417.9 L416.2,419.5 L428.9,420.0 L444.3,419.7 L456.8,418.9 L470.9,417.5 L473.6,416.8 L476.1,415.3 L477.5,413.9 L479.0,411.5 L479.7,408.6 L479.3,404.8 L478.1,402.1 L476.1,400.0 L472.7,398.2 L468.5,397.8 L463.6,396.0 L458.0,395.1 L457.1,394.6 L456.5,393.5 L454.4,374.8 L451.3,358.8 L446.9,342.7 L443.3,332.7 L440.2,325.6 L439.9,323.4 L440.2,322.2 L441.4,321.2 L446.9,321.1 L449.4,320.3 L451.2,319.2 L452.5,317.9 L453.2,316.4 L453.3,314.5 L452.7,313.0 L450.8,311.0 L447.9,309.7 L445.2,309.2 L441.9,309.4 L440.1,309.2 L406.0,314.7 L404.7,314.1 L399.7,309.8 L392.0,302.0 L383.9,291.7 L375.7,279.5 L375.6,278.4 L377.0,271.6 L377.4,267.4 L377.0,263.1 L375.8,259.0 L374.9,257.1 L372.5,253.5 L371.0,251.8 L367.7,249.1 L364.7,247.4 L363.8,246.2 L363.8,245.1 L364.3,244.2 L368.0,241.4 L370.9,238.2 L372.7,235.4 L374.0,232.5 L374.9,228.8 L375.3,225.1 L375.0,221.8 L374.1,218.1 L371.8,213.3 L368.4,209.1 L364.1,205.9 L359.1,203.9 L354.9,203.1 L350.5,203.2 L346.3,204.2 L342.4,205.9 L338.9,208.4 L335.9,211.5 L333.6,215.2 L332.0,219.2 L331.4,222.9 L331.3,226.7 L332.0,230.9 L333.4,234.5 L335.0,237.3 L337.0,239.8 L340.1,242.7 L344.2,245.2 L344.7,245.9 L344.9,247.0 L344.4,248.3 L341.5,250.4 L338.5,253.4 L336.1,257.0 L334.4,261.0 L331.3,272.4 L327.2,289.8 L324.0,308.5 L322.0,325.2 L321.0,342.3Z M386.9,372.7 L386.9,371.0 L387.9,369.8 L419.8,347.8 L420.8,347.5 L421.9,347.7 L422.9,348.7 L425.2,354.1 L430.7,369.8 L434.6,385.1 L436.3,393.7 L436.1,395.2 L435.3,396.1 L434.1,396.4 L419.0,394.5 L404.6,391.6 L395.6,389.1 L389.1,387.0 L388.3,386.3 L387.9,385.4 L388.4,381.8 L388.4,378.5 L387.8,375.2 L386.9,372.7Z M370.1,323.4 L371.1,308.7 L372.0,307.5 L373.7,307.1 L374.8,307.7 L380.0,313.3 L385.3,318.5 L392.7,324.7 L393.3,325.6 L393.4,326.7 L393.0,327.7 L392.3,328.3 L373.1,338.8 L371.8,338.9 L370.5,338.2 L370.0,337.1 L370.1,323.4Z" fill="#e6ede8"/><path d="M321.0,342.3 L321.1,359.9 L321.5,367.2 L322.2,371.4 L320.9,375.2 L320.3,378.5 L320.3,381.8 L320.9,385.1 L322.1,388.3 L323.3,390.6 L326.6,394.9 L331.9,399.2 L337.3,402.1 L341.3,403.5 L345.5,404.6 L354.1,405.5 L359.7,407.9 L370.7,411.7 L383.2,415.0 L399.6,417.9 L416.2,419.5 L428.9,420.0 L444.3,419.7 L456.8,418.9 L470.9,417.5 L473.6,416.8 L476.1,415.3 L477.5,413.9 L479.0,411.5 L479.7,408.6 L479.3,404.8 L478.1,402.1 L476.1,400.0 L472.7,398.2 L468.5,397.8 L463.6,396.0 L458.0,395.1 L457.1,394.6 L456.5,393.5 L454.4,374.8 L451.3,358.8 L446.9,342.7 L443.3,332.7 L440.2,325.6 L439.9,323.4 L440.2,322.2 L441.4,321.2 L446.9,321.1 L449.4,320.3 L451.2,319.2 L452.5,317.9 L453.2,316.4 L453.3,314.5 L452.7,313.0 L450.8,311.0 L447.9,309.7 L445.2,309.2 L441.9,309.4 L440.1,309.2 L406.0,314.7 L404.7,314.1 L399.7,309.8 L392.0,302.0 L383.9,291.7 L375.7,279.5 L375.6,278.4 L377.0,271.6 L377.4,267.4 L377.0,263.1 L375.8,259.0 L374.9,257.1 L372.5,253.5 L371.0,251.8 L367.7,249.1 L364.7,247.4 L363.8,246.2 L363.8,245.1 L364.3,244.2 L368.0,241.4 L370.9,238.2 L372.7,235.4 L374.0,232.5 L374.9,228.8 L375.3,225.1 L375.0,221.8 L374.1,218.1 L371.8,213.3 L368.4,209.1 L364.1,205.9 L359.1,203.9 L354.9,203.1 L350.5,203.2 L346.3,204.2 L342.4,205.9 L338.9,208.4 L335.9,211.5 L333.6,215.2 L332.0,219.2 L331.4,222.9 L331.3,226.7 L332.0,230.9 L333.4,234.5 L335.0,237.3 L337.0,239.8 L340.1,242.7 L344.2,245.2 L344.7,245.9 L344.9,247.0 L344.4,248.3 L341.5,250.4 L338.5,253.4 L336.1,257.0 L334.4,261.0 L331.3,272.4 L327.2,289.8 L324.0,308.5 L322.0,325.2 L321.0,342.3Z M386.9,372.7 L386.9,371.0 L387.9,369.8 L419.8,347.8 L420.8,347.5 L421.9,347.7 L422.9,348.7 L425.2,354.1 L430.7,369.8 L434.6,385.1 L436.3,393.7 L436.1,395.2 L435.3,396.1 L434.1,396.4 L419.0,394.5 L404.6,391.6 L395.6,389.1 L389.1,387.0 L388.3,386.3 L387.9,385.4 L388.4,381.8 L388.4,378.5 L387.8,375.2 L386.9,372.7Z M370.1,323.4 L371.1,308.7 L372.0,307.5 L373.7,307.1 L374.8,307.7 L380.0,313.3 L385.3,318.5 L392.7,324.7 L393.3,325.6 L393.4,326.7 L393.0,327.7 L392.3,328.3 L373.1,338.8 L371.8,338.9 L370.5,338.2 L370.0,337.1 L370.1,323.4Z" fill="none" stroke="#6b8c6e" stroke-width="1.8"/></svg>