<svg xmlns="http://www.w3.org/2000/svg" viewBox="0 0 1200 500" role="img" aria-labelledby="t d" xmlns:c2pa="http://c2pa.org/manifest"><metadata><c2pa:manifest>AAAWgmp1bWIAAAAeanVtZGMycGEAEQAQgAAAqgA4m3EDYzJwYQAAABZcanVtYgAAAEdqdW1kYzJtYQARABCAAACqADibcQN1cm46YzJwYTozZmYyNmQ3Zi1hZDY1LTQ4N2UtOTRmNy1mOTAyZmQ4ZTcwZDkAAAADl2p1bWIAAAApanVtZGMyYXMAEQAQgAAAqgA4m3EDYzJwYS5hc3NlcnRpb25zAAAAALxqdW1iAAAARGp1bWRjYm9yABEAEIAAAKoAOJtxE2MycGEuaW5ncmVkaWVudC52MwAAAAAYYzJzaKP3K0D0J1HSLZFXAxqpQXsAAABwY2JvcqNpZGM6Zm9ybWF0bWltYWdlL3N2Zyt4bWxqaW5zdGFuY2VJRHgseG1wOmlpZDo0ZjQ4MmM2Yy1iNzUwLTQwZWQtODYxYS00OGJjMmNlOThmYTlscmVsYXRpb25zaGlwaHBhcmVudE9mAAAB4mp1bWIAAABBanVtZGNib3IAEQAQgAAAqgA4m3ETYzJwYS5hY3Rpb25zLnYyAAAAABhjMnNoKaODx+ST4F/QKKYkUOTDvwAAAZljYm9yomdhY3Rpb25zgqJmYWN0aW9ua2MycGEub3BlbmVkanBhcmFtZXRlcnOha2luZ3JlZGllbnRzgaJjdXJseC1zZWxmI2p1bWJmPWMycGEuYXNzZXJ0aW9ucy9jMnBhLmluZ3JlZGllbnQudjNkaGFzaFgg77kTTkLscDEm0HHD3vBWHDzO56WxxBCBsOJ7BceBIhakZmFjdGlvbngdY29tLmFudGhyb3BpYy5jbGF1ZGUucHJvdmlkZWRqcGFyYW1ldGVyc6F4H2NvbS5hbnRocm9waWMub3JpZ2luLWNvbmZpZGVuY2VndW5rbm93bmtkZXNjcmlwdGlvbnhmQ2xhdWRlIHByb3ZpZGVkIHRoaXMgZmlsZSBhdCB0aGUgcmVxdWVzdCBvZiBhIHVzZXIgYW5kIG1heSBoYXZlIGNyZWF0ZWQgb3IgbW9kaWZpZWQgdGhlIGZpbGUgY29udGVudHMubXNvZnR3YXJlQWdlbnShZG5hbWVmQ2xhdWRlcmFsbEFjdGlvbnNJbmNsdWRlZPUAAADIanVtYgAAAEBqdW1kY2JvcgARABCAAACqADibcRNjMnBhLmhhc2guZGF0YQAAAAAYYzJzaDyVo9iYxndCwgEmRUPYGZYAAACAY2JvcqVjYWxnZnNoYTI1NmNwYWRNAAAAAAAAAAAAAAAAAGRoYXNoWCDt3DUAfs3klWR3OTW6esRB6PplD3bZDPAdyEwOgfG2dWRuYW1lbmp1bWJmIG1hbmlmZXN0amV4Y2x1c2lvbnOBomVzdGFydBifZmxlbmd0aBkeBAAAAj5qdW1iAAAAJ2p1bWRjMmNsABEAEIAAAKoAOJtxA2MycGEuY2xhaW0udjIAAAACD2Nib3KlY2FsZ2ZzaGEyNTZpc2lnbmF0dXJleE1zZWxmI2p1bWJmPS9jMnBhL3VybjpjMnBhOjNmZjI2ZDdmLWFkNjUtNDg3ZS05NGY3LWY5MDJmZDhlNzBkOS9jMnBhLnNpZ25hdHVyZWppbnN0YW5jZUlEeCx4bXA6aWlkOjllN2Y3YjdmLWQ5OTMtNGFlOC04MzIzLWFkZWQzM2ZhOWEwZXJjcmVhdGVkX2Fzc2VydGlvbnODomN1cmx4LXNlbGYjanVtYmY9YzJwYS5hc3NlcnRpb25zL2MycGEuaW5ncmVkaWVudC52M2RoYXNoWCDvuRNOQuxwMSbQccPe8FYcPM7npbHEEIGw4nsFx4EiFqJjdXJseCpzZWxmI2p1bWJmPWMycGEuYXNzZXJ0aW9ucy9jMnBhLmFjdGlvbnMudjJkaGFzaFgg1m49NklVBuieh5F7V3v510luo2CsRq/f5U21M5dDFK+iY3VybHgpc2VsZiNqdW1iZj1jMnBhLmFzc2VydGlvbnMvYzJwYS5oYXNoLmRhdGFkaGFzaFggTdNu8DPCVbxOgyKUYWE6gdDD9hst69YJW5t68B7z8zJ0Y2xhaW1fZ2VuZXJhdG9yX2luZm+jZG5hbWVvQW50aHJvcGljIEZpbGVzZ3ZlcnNpb25lMS4wLjBrc3BlY1ZlcnNpb25lMi40LjAAABA4anVtYgAAAChqdW1kYzJjcwARABCAAACqADibcQNjMnBhLnNpZ25hdHVyZQAAABAIY2JvctKEWQISogEmGCFZAgowggIGMIIBjaADAgECAhRA5aAK7sI50L64g/oGQgU9Z1UTADAKBggqhkjOPQQDAzBJMRcwFQYDVQQKEw5BbnRocm9waWMsIFBCQzEuMCwGA1UEAxMlQW50aHJvcGljIENvbnRlbnQgQ3JlZGVudGlhbHMgUm9vdCBDQTAeFw0yNjA4MDcxODQzNTZaFw0yODA4MDYxOTQzNTZaMEQxFzAVBgNVBAoTDkFudGhyb3BpYywgUEJDMSkwJwYDVQQDEyBBbnRocm9waWMgQ2xhdWRlIENvbnRlbnQgU2lnbmluZzBZMBMGByqGSM49AgEGCCqGSM49AwEHA0IABJh6CmvLUBgFFNU0vUKlOVtE6djd17L5SuwX0LemFisBM3dkd/3cyjxFA3Qo5S46fX0/ihY0VZ7mfb9KF703t5OjWDBWMA4GA1UdDwEB/wQEAwIHgDAVBgNVHSUEDjAMBgorBgEEAYPoXgIBMAwGA1UdEwEB/wQCMAAwHwYDVR0jBBgwFoAUzlHiBIFOZFsj+OPEz5o+nMHXXMIwCgYIKoZIzj0EAwMDZwAwZAIwMXMdFJ4BetLLVY7ORuE9noqbbAZOZn/aArXyTwFAZfKrPzxF2vPoJNf1+UCdg1XGAjBwX1zd9WGqYkqmL5SFqw1QySjr1zJfpJM9+1rdDwSPLMOPOjKuiXjoU/pUUeG9RwmhY3BhZFkNngAAAAAAAAAAAAAAAAAAAAAAAAAAAAAAAAAAAAAAAAAAAAAAAAAAAAAAAAAAAAAAAAAAAAAAAAAAAAAAAAAAAAAAAAAAAAAAAAAAAAAAAAAAAAAAAAAAAAAAAAAAAAAAAAAAAAAAAAAAAAAAAAAAAAAAAAAAAAAAAAAAAAAAAAAAAAAAAAAAAAAAAAAAAAAAAAAAAAAAAAAAAAAAAAAAAAAAAAAAAAAAAAAAAAAAAAAAAAAAAAAAAAAAAAAAAAAAAAAAAAAAAAAAAAAAAAAAAAAAAAAAAAAAAAAAAAAAAAAAAAAAAAAAAAAAAAAAAAAAAAAAAAAAAAAAAAAAAAAAAAAAAAAAAAAAAAAAAAAAAAAAAAAAAAAAAAAAAAAAAAAAAAAAAAAAAAAAAAAAAAAAAAAAAAAAAAAAAAAAAAAAAAAAAAAAAAAAAAAAAAAAAAAAAAAAAAAAAAAAAAAAAAAAAAAAAAAAAAAAAAAAAAAAAAAAAAAAAAAAAAAAAAAAAAAAAAAAAAAAAAAAAAAAAAAAAAAAAAAAAAAAAAAAAAAAAAAAAAAAAAAAAAAAAAAAAAAAAAAAAAAAAAAAAAAAAAAAAAAAAAAAAAAAAAAAAAAAAAAAAAAAAAAAAAAAAAAAAAAAAAAAAAAAAAAAAAAAAAAAAAAAAAAAAAAAAAAAAAAAAAAAAAAAAAAAAAAAAAAAAAAAAAAAAAAAAAAAAAAAAAAAAAAAAAAAAAAAAAAAAAAAAAAAAAAAAAAAAAAAAAAAAAAAAAAAAAAAAAAAAAAAAAAAAAAAAAAAAAAAAAAAAAAAAAAAAAAAAAAAAAAAAAAAAAAAAAAAAAAAAAAAAAAAAAAAAAAAAAAAAAAAAAAAAAAAAAAAAAAAAAAAAAAAAAAAAAAAAAAAAAAAAAAAAAAAAAAAAAAAAAAAAAAAAAAAAAAAAAAAAAAAAAAAAAAAAAAAAAAAAAAAAAAAAAAAAAAAAAAAAAAAAAAAAAAAAAAAAAAAAAAAAAAAAAAAAAAAAAAAAAAAAAAAAAAAAAAAAAAAAAAAAAAAAAAAAAAAAAAAAAAAAAAAAAAAAAAAAAAAAAAAAAAAAAAAAAAAAAAAAAAAAAAAAAAAAAAAAAAAAAAAAAAAAAAAAAAAAAAAAAAAAAAAAAAAAAAAAAAAAAAAAAAAAAAAAAAAAAAAAAAAAAAAAAAAAAAAAAAAAAAAAAAAAAAAAAAAAAAAAAAAAAAAAAAAAAAAAAAAAAAAAAAAAAAAAAAAAAAAAAAAAAAAAAAAAAAAAAAAAAAAAAAAAAAAAAAAAAAAAAAAAAAAAAAAAAAAAAAAAAAAAAAAAAAAAAAAAAAAAAAAAAAAAAAAAAAAAAAAAAAAAAAAAAAAAAAAAAAAAAAAAAAAAAAAAAAAAAAAAAAAAAAAAAAAAAAAAAAAAAAAAAAAAAAAAAAAAAAAAAAAAAAAAAAAAAAAAAAAAAAAAAAAAAAAAAAAAAAAAAAAAAAAAAAAAAAAAAAAAAAAAAAAAAAAAAAAAAAAAAAAAAAAAAAAAAAAAAAAAAAAAAAAAAAAAAAAAAAAAAAAAAAAAAAAAAAAAAAAAAAAAAAAAAAAAAAAAAAAAAAAAAAAAAAAAAAAAAAAAAAAAAAAAAAAAAAAAAAAAAAAAAAAAAAAAAAAAAAAAAAAAAAAAAAAAAAAAAAAAAAAAAAAAAAAAAAAAAAAAAAAAAAAAAAAAAAAAAAAAAAAAAAAAAAAAAAAAAAAAAAAAAAAAAAAAAAAAAAAAAAAAAAAAAAAAAAAAAAAAAAAAAAAAAAAAAAAAAAAAAAAAAAAAAAAAAAAAAAAAAAAAAAAAAAAAAAAAAAAAAAAAAAAAAAAAAAAAAAAAAAAAAAAAAAAAAAAAAAAAAAAAAAAAAAAAAAAAAAAAAAAAAAAAAAAAAAAAAAAAAAAAAAAAAAAAAAAAAAAAAAAAAAAAAAAAAAAAAAAAAAAAAAAAAAAAAAAAAAAAAAAAAAAAAAAAAAAAAAAAAAAAAAAAAAAAAAAAAAAAAAAAAAAAAAAAAAAAAAAAAAAAAAAAAAAAAAAAAAAAAAAAAAAAAAAAAAAAAAAAAAAAAAAAAAAAAAAAAAAAAAAAAAAAAAAAAAAAAAAAAAAAAAAAAAAAAAAAAAAAAAAAAAAAAAAAAAAAAAAAAAAAAAAAAAAAAAAAAAAAAAAAAAAAAAAAAAAAAAAAAAAAAAAAAAAAAAAAAAAAAAAAAAAAAAAAAAAAAAAAAAAAAAAAAAAAAAAAAAAAAAAAAAAAAAAAAAAAAAAAAAAAAAAAAAAAAAAAAAAAAAAAAAAAAAAAAAAAAAAAAAAAAAAAAAAAAAAAAAAAAAAAAAAAAAAAAAAAAAAAAAAAAAAAAAAAAAAAAAAAAAAAAAAAAAAAAAAAAAAAAAAAAAAAAAAAAAAAAAAAAAAAAAAAAAAAAAAAAAAAAAAAAAAAAAAAAAAAAAAAAAAAAAAAAAAAAAAAAAAAAAAAAAAAAAAAAAAAAAAAAAAAAAAAAAAAAAAAAAAAAAAAAAAAAAAAAAAAAAAAAAAAAAAAAAAAAAAAAAAAAAAAAAAAAAAAAAAAAAAAAAAAAAAAAAAAAAAAAAAAAAAAAAAAAAAAAAAAAAAAAAAAAAAAAAAAAAAAAAAAAAAAAAAAAAAAAAAAAAAAAAAAAAAAAAAAAAAAAAAAAAAAAAAAAAAAAAAAAAAAAAAAAAAAAAAAAAAAAAAAAAAAAAAAAAAAAAAAAAAAAAAAAAAAAAAAAAAAAAAAAAAAAAAAAAAAAAAAAAAAAAAAAAAAAAAAAAAAAAAAAAAAAAAAAAAAAAAAAAAAAAAAAAAAAAAAAAAAAAAAAAAAAAAAAAAAAAAAAAAAAAAAAAAAAAAAAAAAAAAAAAAAAAAAAAAAAAAAAAAAAAAAAAAAAAAAAAAAAAAAAAAAAAAAAAAAAAAAAAAAAAAAAAAAAAAAAAAAAAAAAAAAAAAAAAAAAAAAAAAAAAAAAAAAAAAAAAAAAAAAAAAAAAAAAAAAAAAAAAAAAAAAAAAAAAAAAAAAAAAAAAAAAAAAAAAAAAAAAAAAAAAAAAAAAAAAAAAAAAAAAAAAAAAAAAAAAAAAAAAAAAAAAAAAAAAAAAAAAAAAAAAAAAAAAAAAAAAAAAAAAAAAAAAAAAAAAAAAAAAAAAAAAAAAAAAAAAAAAAAAAAAAAAAAAAAAAAAAAAAAAAAAAAAAAAAAAAAAAAAAAAAAAAAAAAAAAAAAAAAAAAAAAAAAAAAAAAAAAAAAAAAAAAAAAAAAAAAAAAAAAAAAAAAAAAAAAAAAAAAAAAAAAAAAAAAAAAAAAAAAAAAAAAAAAAAAAAAAAAAAAAAAAAAAAAAAAAAAAAAAAAAAAAAAAAAAAAAAAAAAAAAAAAAAAAAAAAAAAAAAAAAAAAAAAAAAAAAAAAAAAAAAAAAAAAAAAAAAAAAAAAAAAAAAAAAAAAAAAAAAAAAAAAAAAAAAAAAAAAAAAAAAAAAAAAAAAAAAAAAAAAAAAAAAAAAAAAAAAAAAAAAAAAAAAAAAAAAAAAAAAAAAAAAAAAAAAAAAAAAAAAAAAAAAAAAAAAAAAAAAAAAAAAAAAAAAAAAAAAAAAAAAAAAAAAAAAAAAAAAAAAAAAAAAAAAAAAAAAAAAAAAAAAAAAAAAAAAAAAAAAAAAAAAAAAAAAAAAAAAAAAAAAAAAAAAAAAAAAAAAAAAAAAAAAAAAAAAAAAAAAAAAAAAAAAAAAAAAAAAAAAAAAAAAAAAAAAAAAAAAAAAAAAAAAAAAAAAAAAAAAAAAAAAAAAAAAAAAAAAAAAAAAAAAAAAAAAAAAAAAAAAAAAAAAAAAAAAAAAAAAAAAAAAAAAAAAAAAAAAAAAAAAAAAAAAAAAAAAAAAAAAAAAAAAAAAAAAAAAAAAAAAAAAAAAAAAAAAAAAAAAAAAAAAAAAAAAAAAAAAAAAAAAAAAAAAAAAAAAAAAAAAAAAAAAAAAAAAAAAAAAAAAAAAAAAAAAAAAAAAAAAAAAAAAAAAAAAAAAAAAAAAAAAAAAAAAAAAAAAAAAAAAAAAAAAAAAAAAAAAAAAAAAAAAAAAAAAAAAAAAAAAAAAAAAAAAAAAAAAAAAAAAAAAAAAAAAAAAAAAAAAAAAAAAAAAAAAAAAAAAAAAAAAAAAAAAAAAAAAAAAAAAAAAAAAAAAAAAAAAAAAAAAAAAAAAAAAAAAAAAAAAAAAAAAAAAAAAAAAAAAAAAAAAAAAAAAAAAAAAAAAAAAAAAAAAAAAAAAAAAAAAAAAAAAAAAAAAAAAAAAAAAAAAAAAAAAAAAAAAAAAAAAAAAAAAAAAAAAAAAAAAAAAAAAAAAAAAAAAAAAAAAAAAAAAAAAAAAAAAAAAAAAAAAAAAAAAAAAAAAAAAAAAAAAAAAAAAAAAAAAAAAAAAAAAAAAAAAAAAAAAAAAAAAAAAAAAAAAAAAAAAAAAAAAAAAAAAAAAAAAAAAAAAAAAAAAAAAAAAAAAAAAAAAAAAAAAAAAAAAAAAAAAAAAAAAAAAAAAAAAAAAAAAAAAAAAAAAAAAAAAAAAAAAAAAAAAAAAAAAAAAAAAAAAAAAAAAAAAAAAAAAAAAAAAAAAAAAAAAAAAAAAAAAAAAAAAAAAAAAAAAAAAAAAAAAAAAAAAAAAAAAAAAPZYQOnSz4jvHbFDHDDpKZp8TxvmM/I18LSlXnKs9D1hJJtbVjIHQsyLksoIPwI9oGZLkEg8HvqvueF2gYTvOq+8kyE=</c2pa:manifest></metadata><title id="t">A busca pela porta</title><desc id="d">Uma pessoa sentada dentro de uma sala. Uma linha colorida gira em espiral à sua volta, como um pensamento que se repete, e por fim segue em direção a uma porta iluminada na parede.</desc><defs><radialGradient id="h0"><stop offset="0" stop-color="#ffffff" stop-opacity="0.5"/><stop offset="1" stop-color="#ffffff" stop-opacity="0"/></radialGradient><radialGradient id="h1"><stop offset="0" stop-color="#f6dcb0" stop-opacity="0.8"/><stop offset="1" stop-color="#f6dcb0" stop-opacity="0"/></radialGradient><radialGradient id="h2"><stop offset="0" stop-color="#a99cc0" stop-opacity="0.3"/><stop offset="1" stop-color="#a99cc0" stop-opacity="0"/></radialGradient><linearGradient id="gp" x1="0" x2="1"><stop offset="0" stop-color="#f6dcb0"/><stop offset="1" stop-color="#c4973a" stop-opacity="0.6"/></linearGradient><linearGradient id="gl" x1="0" x2="1"><stop offset="0" stop-color="#a99cc0"/><stop offset="0.6" stop-color="#8fb3c4"/><stop offset="1" stop-color="#c4973a"/></linearGradient></defs><rect width="1200" height="500" fill="#f3f3f0"/><circle cx="600" cy="250" r="330" fill="url(#h0)"/><circle cx="900" cy="320" r="180" fill="url(#h1)"/><circle cx="170" cy="140" r="220" fill="url(#h2)"/><rect x="300" y="110" width="560" height="290" rx="6" fill="none" stroke="#1d3a3f" stroke-opacity="0.35" stroke-width="3"/><rect x="842" y="250" width="34" height="150" fill="url(#gp)"/><rect x="842" y="250" width="34" height="150" fill="none" stroke="#c4973a" stroke-width="2.5"/><path d="M638.0,230.0 L638.3,231.1 L638.4,232.2 L638.5,233.3 L638.5,234.4 L638.4,235.5 L638.2,236.6 L638.0,237.8 L637.6,238.9 L637.2,240.0 L636.6,241.1 L636.0,242.2 L635.3,243.3 L634.5,244.4 L633.6,245.5 L632.6,246.6 L631.5,247.6 L630.4,248.7 L629.1,249.7 L627.8,250.8 L626.4,251.8 L624.9,252.8 L623.3,253.8 L621.6,254.7 L619.9,255.6 L618.0,256.6 L616.1,257.5 L614.2,258.3 L612.1,259.2 L610.0,260.0 L607.8,260.8 L605.5,261.5 L603.2,262.3 L600.8,262.9 L598.3,263.6 L595.8,264.2 L593.2,264.8 L590.6,265.4 L587.9,265.9 L585.2,266.4 L582.4,266.9 L579.6,267.3 L576.7,267.7 L573.8,268.0 L570.9,268.3 L567.9,268.6 L564.9,268.8 L561.9,269.0 L558.8,269.1 L555.8,269.2 L552.7,269.2 L549.6,269.2 L546.5,269.2 L543.4,269.1 L540.3,269.0 L537.2,268.8 L534.1,268.6 L531.0,268.3 L528.0,268.0 L524.9,267.7 L521.9,267.3 L518.9,266.8 L515.9,266.4 L512.9,265.8 L510.0,265.3 L507.1,264.7 L504.3,264.0 L501.5,263.3 L498.7,262.6 L496.0,261.8 L493.4,261.0 L490.8,260.1 L488.2,259.2 L485.8,258.3 L483.4,257.3 L481.1,256.3 L478.8,255.3 L476.6,254.2 L474.5,253.1 L472.5,252.0 L470.6,250.8 L468.8,249.6 L467.0,248.4 L465.4,247.1 L463.8,245.8 L462.3,244.5 L461.0,243.2 L459.7,241.8 L458.5,240.4 L457.5,239.1 L456.5,237.6 L455.7,236.2 L455.0,234.8 L454.4,233.3 L453.9,231.8 L453.5,230.4 L453.2,228.9 L453.1,227.4 L453.0,225.9 L453.1,224.4 L453.3,222.9 L453.6,221.3 L454.1,219.8 L454.6,218.3 L455.3,216.8 L456.1,215.3 L457.0,213.9 L458.1,212.4 L459.2,210.9 L460.5,209.5 L461.9,208.0 L463.4,206.6 L465.0,205.2 L466.7,203.8 L468.6,202.5 L470.6,201.1 L472.6,199.8 L474.8,198.5 L477.1,197.3 L479.5,196.0 L481.9,194.8 L484.5,193.7 L487.2,192.5 L490.0,191.4 L492.9,190.4 L495.8,189.4 L498.9,188.4 L502.0,187.4 L505.2,186.5 L508.5,185.7 L511.8,184.9 L515.3,184.1 L518.8,183.4 L522.3,182.7 L525.9,182.1 L529.6,181.5 L533.4,181.0 L537.1,180.5 L540.9,180.1 L544.8,179.8 L548.7,179.4 L552.6,179.2 L556.6,179.0 L560.6,178.8 L564.6,178.7 L568.6,178.7 L572.6,178.7 L576.6,178.8 L580.7,178.9 L584.7,179.1 L588.7,179.4 L592.7,179.7 L596.7,180.1 L600.7,180.5 L604.6,181.0 L608.6,181.5 L612.4,182.1 L616.3,182.7 L620.1,183.4 L623.8,184.2 L627.5,185.0 L631.2,185.8 L634.8,186.8 L638.3,187.7 L641.7,188.7 L645.1,189.8 L648.4,190.9 L651.6,192.1 L654.7,193.3 L657.8,194.6 L660.7,195.9 L663.5,197.2 L666.3,198.6 L668.9,200.0 L671.5,201.5 L673.9,203.0 L676.2,204.6 L678.4,206.1 L680.5,207.8 L682.4,209.4 L684.2,211.1 L685.9,212.8 L687.5,214.5 L688.9,216.3 L690.2,218.0 L691.4,219.9 L692.4,221.7 L693.3,223.5 L694.0,225.4 L694.6,227.2 L695.0,229.1 L695.3,231.0 L695.5,232.9 L695.5,234.8 L695.3,236.7 L695.0,238.6 L694.6,240.5 L694.0,242.4 L693.2,244.3 L692.3,246.2 L691.3,248.0 L690.1,249.9 L688.7,251.8 L687.2,253.6 L685.6,255.4 L683.8,257.2 L681.9,259.0 L679.8,260.7 L677.6,262.5 L675.3,264.2 L672.8,265.8 L670.2,267.5 L667.4,269.1 L664.5,270.6 L661.5,272.1 L658.4,273.6 L655.1,275.1 L651.8,276.5 L648.3,277.8 L644.7,279.1 L641.0,280.4 L637.1,281.6 L633.2,282.8 L629.2,283.9 L625.1,284.9 L620.9,285.9 L616.7,286.9 L612.3,287.7 L607.9,288.6 L603.4,289.3 L598.8,290.0 L594.2,290.6 L589.5,291.2 L584.7,291.7 L580.0,292.1 L575.1,292.5 L570.3,292.8 L565.4,293.1 L560.5,293.2 L555.5,293.3 L550.6,293.4 L545.6,293.3 L540.6,293.2 L535.7,293.0 L530.7,292.8 L525.8,292.5 L520.9,292.1 L515.9,291.6 L511.1,291.1 L506.2,290.5 L501.4,289.8 L496.7,289.1 L492.0,288.3 L487.3,287.4 L482.7,286.5 L478.2,285.5 L473.8,284.4 L469.4,283.3 L465.1,282.1 L460.9,280.8 L456.8,279.5 L452.8,278.1 L448.9,276.7 L445.1,275.2 L441.4,273.7 L437.8,272.1 L434.4,270.4 L431.0,268.7 L427.8,267.0 L424.8,265.2 L421.8,263.3 L419.1,261.5 L416.4,259.5 L413.9,257.6 L411.6,255.6 L409.4,253.5 L407.3,251.4 L405.5,249.3 L403.7,247.2 L402.2,245.0 L400.8,242.8 L399.6,240.6 L398.6,238.4 L397.7,236.2 L397.0,233.9 L396.5,231.6 L396.2,229.3 L396.0,227.1 L396.0,224.8 L396.2,222.5 L396.6,220.2 L397.2,217.9 L397.9,215.6 L398.8,213.3 L399.9,211.0 L401.2,208.8 L402.7,206.5 L404.3,204.3 L406.1,202.1 L408.1,199.9 L410.3,197.7 L412.6,195.6 L415.1,193.5 L417.8,191.4 L420.6,189.4 L423.6,187.4 L426.8,185.4 L430.1,183.5 L433.6,181.6 L437.2,179.8 L441.0,178.0 L444.9,176.3 L448.9,174.6 L453.1,173.0 L457.4,171.4 L461.9,169.9 L466.5,168.5 L471.2,167.1 L476.0,165.8 L480.9,164.6 L485.9,163.4 L491.0,162.3 L496.2,161.2 L501.5,160.2 L506.9,159.3 L512.3,158.5 L517.9,157.8 L523.5,157.1 L529.1,156.5 L534.8,156.0 L540.6,155.5 L546.4,155.2 L552.2,154.9 L558.0,154.7 L563.9,154.6 L569.8,154.6 L575.7,154.6 L581.6,154.8 L587.5,155.0 L593.4,155.3 L599.3,155.7 L605.1,156.1 L610.9,156.7 L616.7,157.3 L622.5,158.0 L628.2,158.8 L633.8,159.7 L639.4,160.6 L644.9,161.7 L650.3,162.8 L655.7,164.0 L660.9,165.2 L666.1,166.6 L671.1,168.0 L676.1,169.5 L681.0,171.0 L685.7,172.7 L690.3,174.3 L694.8,176.1 L699.2,177.9 L703.4,179.8 L707.4,181.8 L711.4,183.8 L715.1,185.8 L718.7,188.0 L722.2,190.1 L725.5,192.4 L728.6,194.6 L731.5,197.0 L734.3,199.3 L736.9,201.7 L739.3,204.2 L741.5,206.6 L743.5,209.2 L745.3,211.7 L746.9,214.3 L748.3,216.9 L749.5,219.5 L750.6,222.1 L751.4,224.8 L752.0,227.4 L752.4,230.1 L752.6,232.8 L752.5,235.5 L752.3,238.2 L751.8,240.9 L751.2,243.6 L750.3,246.3 L749.2,249.0 L747.9,251.6 L746.4,254.3 L744.7,256.9 L742.8,259.5 L740.7,262.1 L738.4,264.6 L735.8,267.2 L733.1,269.7 L730.2,272.1 L727.1,274.5 L723.7,276.9 L727.3,278.4 L730.8,279.8 L734.4,281.2 L737.9,282.7 L741.5,284.1 L745.0,285.5 L748.5,287.0 L752.1,288.4 L755.6,289.8 L759.2,291.3 L762.7,292.7 L766.2,294.2 L769.8,295.6 L773.3,297.0 L776.9,298.5 L780.4,299.9 L784.0,301.3 L787.5,302.8 L791.0,304.2 L794.6,305.6 L798.1,307.1 L801.7,308.5 L805.2,309.9 L808.7,311.4 L812.3,312.8 L815.8,314.3 L819.4,315.7 L822.9,317.1 L826.5,318.6 L830.0,320.0" fill="none" stroke="url(#gl)" stroke-width="2.4" stroke-linecap="round" opacity="0.8"/><ellipse cx="520" cy="382" rx="55" ry="4" fill="#1d3a3f" opacity="0.08"/><path d="M459.7,320.7 L459.8,334.1 L460.0,339.7 L460.6,342.9 L459.2,348.3 L459.2,350.8 L459.6,353.4 L461.4,357.5 L464.0,360.8 L468.0,364.1 L472.1,366.3 L478.4,368.2 L484.9,368.9 L497.6,373.7 L507.2,376.2 L519.7,378.4 L532.4,379.6 L542.0,380.0 L553.8,379.8 L563.4,379.2 L574.1,378.1 L576.3,377.5 L578.1,376.4 L579.2,375.3 L580.3,373.5 L580.9,371.4 L580.7,369.1 L579.6,366.4 L578.1,364.7 L575.5,363.3 L572.3,363.0 L568.6,361.7 L564.3,361.0 L563.6,360.6 L563.1,359.8 L561.5,345.5 L559.2,333.3 L555.8,321.0 L553.0,313.3 L550.7,307.9 L550.5,306.2 L550.8,305.1 L551.6,304.6 L555.8,304.5 L557.7,303.9 L559.1,303.0 L560.1,302.0 L560.6,300.9 L560.7,299.5 L560.2,298.3 L558.8,296.8 L556.6,295.8 L554.5,295.4 L550.6,295.4 L524.6,299.6 L523.6,299.1 L519.7,295.9 L513.9,289.9 L507.7,282.0 L501.5,272.7 L502.8,263.4 L502.4,260.2 L500.8,255.6 L497.8,251.6 L495.3,249.5 L493.0,248.2 L492.4,247.3 L492.8,245.7 L495.6,243.6 L497.8,241.1 L500.1,236.8 L500.9,234.0 L501.1,231.5 L500.9,228.7 L500.2,225.9 L498.5,222.1 L495.9,219.0 L492.6,216.5 L488.8,214.9 L485.5,214.4 L482.2,214.5 L479.0,215.2 L476.0,216.5 L473.3,218.4 L471.1,220.8 L469.3,223.6 L468.1,226.7 L467.6,229.5 L467.5,232.4 L468.0,235.2 L469.1,238.3 L471.9,242.4 L474.3,244.6 L477.4,246.5 L477.9,247.9 L477.5,248.9 L475.3,250.5 L473.0,252.8 L471.2,255.5 L469.9,258.6 L467.5,267.3 L464.4,280.6 L461.9,294.8 L460.4,307.6 L459.7,320.7Z M510.0,343.8 L510.0,342.6 L510.7,341.7 L535.1,324.9 L536.7,324.8 L537.5,325.6 L539.3,329.7 L543.5,341.7 L546.4,353.4 L547.7,359.9 L547.6,361.0 L547.0,361.7 L546.1,362.0 L534.5,360.5 L523.5,358.3 L511.7,354.8 L510.8,353.5 L511.1,348.3 L510.0,343.8Z M497.2,306.3 L497.9,295.0 L498.6,294.1 L499.9,293.8 L500.8,294.2 L508.7,302.5 L514.5,307.2 L515.0,308.7 L514.1,310.0 L499.4,318.0 L498.5,318.1 L497.6,317.7 L497.1,316.7 L497.2,306.3Z" fill="#e6ede8"/><path d="M459.7,320.7 L459.8,334.1 L460.0,339.7 L460.6,342.9 L459.2,348.3 L459.2,350.8 L459.6,353.4 L461.4,357.5 L464.0,360.8 L468.0,364.1 L472.1,366.3 L478.4,368.2 L484.9,368.9 L497.6,373.7 L507.2,376.2 L519.7,378.4 L532.4,379.6 L542.0,380.0 L553.8,379.8 L563.4,379.2 L574.1,378.1 L576.3,377.5 L578.1,376.4 L579.2,375.3 L580.3,373.5 L580.9,371.4 L580.7,369.1 L579.6,366.4 L578.1,364.7 L575.5,363.3 L572.3,363.0 L568.6,361.7 L564.3,361.0 L563.6,360.6 L563.1,359.8 L561.5,345.5 L559.2,333.3 L555.8,321.0 L553.0,313.3 L550.7,307.9 L550.5,306.2 L550.8,305.1 L551.6,304.6 L555.8,304.5 L557.7,303.9 L559.1,303.0 L560.1,302.0 L560.6,300.9 L560.7,299.5 L560.2,298.3 L558.8,296.8 L556.6,295.8 L554.5,295.4 L550.6,295.4 L524.6,299.6 L523.6,299.1 L519.7,295.9 L513.9,289.9 L507.7,282.0 L501.5,272.7 L502.8,263.4 L502.4,260.2 L500.8,255.6 L497.8,251.6 L495.3,249.5 L493.0,248.2 L492.4,247.3 L492.8,245.7 L495.6,243.6 L497.8,241.1 L500.1,236.8 L500.9,234.0 L501.1,231.5 L500.9,228.7 L500.2,225.9 L498.5,222.1 L495.9,219.0 L492.6,216.5 L488.8,214.9 L485.5,214.4 L482.2,214.5 L479.0,215.2 L476.0,216.5 L473.3,218.4 L471.1,220.8 L469.3,223.6 L468.1,226.7 L467.6,229.5 L467.5,232.4 L468.0,235.2 L469.1,238.3 L471.9,242.4 L474.3,244.6 L477.4,246.5 L477.9,247.9 L477.5,248.9 L475.3,250.5 L473.0,252.8 L471.2,255.5 L469.9,258.6 L467.5,267.3 L464.4,280.6 L461.9,294.8 L460.4,307.6 L459.7,320.7Z M510.0,343.8 L510.0,342.6 L510.7,341.7 L535.1,324.9 L536.7,324.8 L537.5,325.6 L539.3,329.7 L543.5,341.7 L546.4,353.4 L547.7,359.9 L547.6,361.0 L547.0,361.7 L546.1,362.0 L534.5,360.5 L523.5,358.3 L511.7,354.8 L510.8,353.5 L511.1,348.3 L510.0,343.8Z M497.2,306.3 L497.9,295.0 L498.6,294.1 L499.9,293.8 L500.8,294.2 L508.7,302.5 L514.5,307.2 L515.0,308.7 L514.1,310.0 L499.4,318.0 L498.5,318.1 L497.6,317.7 L497.1,316.7 L497.2,306.3Z" fill="none" stroke="#6b8c6e" stroke-width="1.8"/></svg>